<svg xmlns="http://www.w3.org/2000/svg" width="29.609" height="37.251" viewBox="0 0 29.609 37.251">
  <g id="arrow-top" transform="translate(29.609) rotate(90)">
    <path id="Path_1995" data-name="Path 1995" d="M0,1.432A1.433,1.433,0,0,1,1.434,0L35.416.024a1.433,1.433,0,0,1,0,2.865L1.432,2.865A1.433,1.433,0,0,1,0,1.432Z" transform="translate(0.403 13.372)" fill="#0f3c66" fill-rule="evenodd"/>
    <path id="Path_1996" data-name="Path 1996" d="M15.793.419a1.433,1.433,0,0,1,0,2.026L3.457,14.8l12.338,12.36a1.433,1.433,0,0,1-2.028,2.025L.419,15.817a1.433,1.433,0,0,1,0-2.025L13.767.421A1.433,1.433,0,0,1,15.793.419Z" transform="translate(0 0)" fill="#0f3c66" fill-rule="evenodd"/>
  </g>
</svg>
