<svg xmlns="http://www.w3.org/2000/svg" width="44.032" height="35" viewBox="0 0 44.032 35">
  <g id="arrow-left" transform="translate(-18 -34)">
    <path id="Path_1995" data-name="Path 1995" d="M19.688,91.692A1.693,1.693,0,0,1,21.383,90l40.169.028a1.694,1.694,0,0,1,0,3.387L21.38,93.387A1.694,1.694,0,0,1,19.688,91.692Z" transform="translate(-1.212 -40.193)" fill="#0f3c66" fill-rule="evenodd"/>
    <path id="Path_1996" data-name="Path 1996" d="M36.668,34.495a1.694,1.694,0,0,1,0,2.4L22.086,51.5,36.67,66.11a1.694,1.694,0,0,1-2.4,2.393L18.495,52.7a1.694,1.694,0,0,1,0-2.393L34.273,34.5A1.694,1.694,0,0,1,36.668,34.495Z" fill="#0f3c66" fill-rule="evenodd"/>
  </g>
</svg>
