<svg id="bank" xmlns="http://www.w3.org/2000/svg" width="43.488" height="40.589" viewBox="0 0 43.488 40.589">
  <path id="Path_2045" data-name="Path 2045" d="M21.744,0,43.488,8.7v2.9h-2.9a1.345,1.345,0,0,1-.464,1.019,1.562,1.562,0,0,1-1.1.43H4.462a1.562,1.562,0,0,1-1.1-.43A1.345,1.345,0,0,1,2.9,11.6H0V8.7ZM5.8,14.5h5.8v17.4h2.9V14.5h5.8v17.4h2.9V14.5h5.8v17.4h2.9V14.5h5.8v17.4h1.336a1.562,1.562,0,0,1,1.1.43,1.345,1.345,0,0,1,.464,1.019v1.45H2.9v-1.45a1.345,1.345,0,0,1,.464-1.019,1.562,1.562,0,0,1,1.1-.43H5.8ZM41.925,36.24a1.562,1.562,0,0,1,1.1.43,1.345,1.345,0,0,1,.464,1.019v2.9H0v-2.9a1.345,1.345,0,0,1,.464-1.019,1.562,1.562,0,0,1,1.1-.43Z" fill="#fff"/>
</svg>
