<svg xmlns="http://www.w3.org/2000/svg" width="80.465" height="80.465" viewBox="0 0 80.465 80.465">
  <path id="banking-service" d="M26.4,33.634V26.211h4.99v7.423Zm16.828,0V26.211H38.235v7.423Zm11.833,0V26.211h-4.99v7.423Zm3.91-11.41v-1.08H22.492v1.08a1.393,1.393,0,0,0,1.389,1.389H57.589a1.389,1.389,0,0,0,1.384-1.389ZM22.492,38.695H58.973v-1.08a1.388,1.388,0,0,0-1.384-1.384H23.88a1.392,1.392,0,0,0-1.389,1.384ZM61.759,18.55H19.706v-4.3L40.717.5,61.759,14.253ZM43.877,9.745a3.158,3.158,0,1,0-3.16,3.16A3.164,3.164,0,0,0,43.877,9.745ZM62.494,44a2.717,2.717,0,0,0-2.71-2.71h-38.1A2.717,2.717,0,0,0,18.969,44v2.71H62.494ZM80.965,31.661a9.554,9.554,0,1,1-9.552-9.552A9.572,9.572,0,0,1,80.965,31.661ZM74.69,33.607a3.25,3.25,0,0,0-2.822-3.214,1.342,1.342,0,0,0-.268-.027h-.222a.656.656,0,0,1-.647-.652.63.63,0,0,1,.192-.455.644.644,0,0,1,.455-.192h.45a.644.644,0,0,1,.526.269,1.294,1.294,0,1,0,2.075-1.545,3.242,3.242,0,0,0-1.148-.968,3.16,3.16,0,0,0-.576-.228v-.567a1.3,1.3,0,1,0-2.593,0v.7a3.244,3.244,0,0,0,.839,6.2,1.342,1.342,0,0,0,.268.027h.227a.656.656,0,0,1,.647.647.656.656,0,0,1-.647.652H71a.67.67,0,0,1-.294-.068.692.692,0,0,1-.231-.2,1.294,1.294,0,0,0-2.08,1.54,3.254,3.254,0,0,0,1.148.973,3.526,3.526,0,0,0,.576.224v.567a1.3,1.3,0,1,0,2.593,0v-.7a3.338,3.338,0,0,0,1.031-.7,3.239,3.239,0,0,0,.951-2.294ZM.5,34l2.16-1.246a7.248,7.248,0,0,1,0-2.214L.5,29.294,3.24,24.55l2.25,1.3a7.19,7.19,0,0,1,1.825-.986V22.2h5.477v2.874a7.083,7.083,0,0,1,1.531.946l2.545-1.469,2.74,4.744-2.638,1.523a7.078,7.078,0,0,1,0,1.66L19.607,34l-2.74,4.744-2.545-1.472a6.94,6.94,0,0,1-1.531.946V41.1H7.315V38.432a7.212,7.212,0,0,1-1.825-.986l-2.25,1.3Zm6.382-2.353A2.915,2.915,0,1,0,9.8,28.732,2.911,2.911,0,0,0,6.882,31.647ZM47.957,53.076a6.765,6.765,0,0,1,2.691,2.1l5.606-3.053a4.208,4.208,0,0,0-5.061-.808Zm14.082-1.142L51.808,57.5a6.719,6.719,0,0,1-.076,3.9,6.8,6.8,0,0,1-8.544,4.384L34.083,62.85a1.137,1.137,0,0,1-.732-1.428l.1-.309a1.139,1.139,0,0,1,1.428-.732l9.106,2.932a4.2,4.2,0,0,0,2.57-7.99L32.117,50.676A13.79,13.79,0,0,0,20.936,51.72L11.963,56.6l8.9,15.457a9.93,9.93,0,0,1,7.4-.411l5.277,1.7a9.968,9.968,0,0,0,8.092-.759L66.045,59.307a4.2,4.2,0,1,0-4.006-7.373ZM7.994,54.907a1.1,1.1,0,0,0-1.5-.4L1.05,57.642a1.094,1.094,0,0,0-.4,1.5L12.905,80.417a1.094,1.094,0,0,0,1.5.4l5.445-3.138a1.094,1.094,0,0,0,.4-1.5Z" transform="translate(-0.5 -0.5)" fill="#fff" fill-rule="evenodd"/>
</svg>
