<svg xmlns="http://www.w3.org/2000/svg" width="70.616" height="55.687" viewBox="0 0 70.616 55.687">
  <path id="binoculars" d="M34.8,18.937c0,.077,0,.154-.008.23v.038l-.084,1.328a10.732,10.732,0,0,0-7.921-3.492,10.6,10.6,0,0,0-2.264.246L25,16.473l.107-.184A5.208,5.208,0,0,1,34.8,18.937Zm-8.013.407A8.417,8.417,0,0,0,19.52,23.5l-.169.292L10.693,38.686A17.617,17.617,0,0,1,34.15,44.451l1.075-16.226v-.061c.008-.13.008-.246.008-.376a8.448,8.448,0,0,0-8.443-8.443ZM19.351,46.769a7.292,7.292,0,1,0,7.292,7.292A7.3,7.3,0,0,0,19.351,46.769ZM34.7,54.061A15.351,15.351,0,1,1,19.351,38.709,15.352,15.352,0,0,1,34.7,54.061Zm-5.757,0a9.595,9.595,0,1,0-9.595,9.595A9.6,9.6,0,0,0,28.946,54.061Zm24.67-37.588-.107-.184a5.208,5.208,0,0,0-9.694,2.648c0,.077,0,.154.008.23v.038l.092,1.343a10.669,10.669,0,0,1,10.178-3.254ZM59.265,23.8,59.1,23.5a8.439,8.439,0,0,0-15.712,4.283c0,.13,0,.246.008.376v.061l1.075,16.226a17.617,17.617,0,0,1,23.457-5.764Zm0,22.973a7.292,7.292,0,1,0,7.292,7.292A7.3,7.3,0,0,0,59.265,46.769Zm15.351,7.292A15.351,15.351,0,1,1,59.265,38.709,15.352,15.352,0,0,1,74.616,54.061Zm-5.757,0a9.595,9.595,0,1,0-9.595,9.595A9.6,9.6,0,0,0,68.859,54.061ZM36.445,44.6l-.269,4.122A17.439,17.439,0,0,1,37,53.807h4.621a17.439,17.439,0,0,1,.821-5.089L42.171,44.6ZM41.2,30.013H37.412L36.6,42.294h5.419Z" transform="translate(-4 -13.725)" fill="#0f3c66"/>
</svg>
