<svg id="calculator-2" xmlns="http://www.w3.org/2000/svg" xmlns:xlink="http://www.w3.org/1999/xlink" width="79.826" height="81.129" viewBox="0 0 79.826 81.129">
  <defs>
    <clipPath id="clip-path">
      <rect id="Rectangle_141" data-name="Rectangle 141" width="79.826" height="81.129" fill="#0f3c66"/>
    </clipPath>
  </defs>
  <g id="Group_188" data-name="Group 188" clip-path="url(#clip-path)">
    <path id="Path_1982" data-name="Path 1982" d="M19.7,15.049H3.868V12.166H19.7ZM43.992,0H27.618V2.969H43.992ZM46.87,53.991H24.739V5.288H46.87ZM28.841,14.516H42.765V10.794H28.841Zm5.272,24.116H28.841v0h-.005v5.277h5.277V38.631Zm0-8.652v0H28.836v5.277h5.277V29.98Zm0-8.652v-.013H28.836v5.277h.005V26.6h5.272V21.328Zm8.66,17.308h-.009v0H37.493V43.9h0v.01h5.277V38.636Zm0-8.66H37.5v0h0v5.272h5.28V29.975Zm0-8.66H37.5v.013h0V26.6h5.272v-.008h.009V21.315Zm9.39,32.642c0,.011,0,.022,0,.034H49.189V15.6L66.081,8v31a14.905,14.905,0,0,0-4.5,1.039V21.315a1.159,1.159,0,1,0-2.319,0v19.9a14.977,14.977,0,0,0-7.093,12.74Zm1.53-10.54a1.159,1.159,0,1,0,2.319,0v-22.1a1.159,1.159,0,1,0-2.319,0ZM22.421,53.991H1.149V17.368H22.42V53.991Zm-11.8-12.2H6.263v3.783h4.363Zm0-6.1H6.263v3.783h4.363Zm0-6.1H6.263v3.783h4.363Zm0-6.1H6.263v3.783h4.363Zm6.682,18.306H12.944v3.783h4.363Zm0-6.1H12.944v3.783h4.363Zm0-6.1H12.944v3.783h4.363Zm0-6.1H12.944v3.783h4.363ZM78.1,75.5H56.208a1.731,1.731,0,0,0-1.725,1.725V79.4a1.731,1.731,0,0,0,1.725,1.725H78.1A1.731,1.731,0,0,0,79.826,79.4V77.227A1.731,1.731,0,0,0,78.1,75.5m0-7.946H56.208a1.731,1.731,0,0,0-1.725,1.725v2.176a1.731,1.731,0,0,0,1.725,1.725H78.1a1.731,1.731,0,0,0,1.725-1.725V69.281A1.731,1.731,0,0,0,78.1,67.555M31.407,60.91H42.481a4.281,4.281,0,0,0,2.942,2.943v9.731a4.283,4.283,0,0,0-2.942,2.943H31.406a10.085,10.085,0,0,0,0-15.619Zm6.761,7.809a1.159,1.159,0,0,0,1.159,1.159h1.878a1.159,1.159,0,0,0,0-2.319H39.328A1.159,1.159,0,0,0,38.168,68.72Zm-20.934,0A7.778,7.778,0,1,1,25.012,76.5a7.787,7.787,0,0,1-7.778-7.779m9.427,2.173a.648.648,0,0,1-.37.466,3.117,3.117,0,0,1-1.916.151,1.723,1.723,0,0,1-1.162-.634,1.155,1.155,0,1,0-2.029,1.105,3.911,3.911,0,0,0,2.667,1.782V74.4a1.159,1.159,0,1,0,2.319,0v-.6a4.388,4.388,0,0,0,1.153-.372,2.961,2.961,0,0,0,1.62-2.178,2.875,2.875,0,0,0-1.8-3.1,8.412,8.412,0,0,0-1.905-.624,4.82,4.82,0,0,1-1.568-.539.6.6,0,0,1-.256-.376c-.016-.226.205-.41.381-.5a2.735,2.735,0,0,1,1.476-.24,2.106,2.106,0,0,1,1.242.447.6.6,0,0,1,.114.146,1.157,1.157,0,0,0,2.038-1.1,2.9,2.9,0,0,0-.549-.716,4.093,4.093,0,0,0-1.95-.984v-.627a1.159,1.159,0,1,0-2.319,0v.62a3.768,3.768,0,0,0-1.95,1.014,2.736,2.736,0,0,0-.793,2.095,2.767,2.767,0,0,0,.881,1.818,3.436,3.436,0,0,0,.272.234,6.235,6.235,0,0,0,2.456.965,6.535,6.535,0,0,1,1.407.443c.27.134.592.314.536.665ZM4.6,73.585V63.854A4.28,4.28,0,0,0,7.542,60.91H18.617a10.086,10.086,0,0,0,0,15.619H7.542A4.281,4.281,0,0,0,4.6,73.585ZM7.659,68.72a1.159,1.159,0,0,0,1.159,1.159H10.7a1.159,1.159,0,0,0,0-2.319H8.818A1.159,1.159,0,0,0,7.659,68.72M0,56.31H50.024V81.129H0ZM2.282,74.584a1.158,1.158,0,0,0,1.159,1.159,1.947,1.947,0,0,1,1.943,1.945,1.161,1.161,0,0,0,1.159,1.159H43.48a1.16,1.16,0,0,0,1.159-1.159,1.948,1.948,0,0,1,1.943-1.945,1.158,1.158,0,0,0,1.159-1.159V62.853a1.159,1.159,0,0,0-1.159-1.159,1.946,1.946,0,0,1-1.943-1.943,1.159,1.159,0,0,0-1.159-1.159H6.544a1.161,1.161,0,0,0-1.159,1.159,1.945,1.945,0,0,1-1.943,1.943,1.159,1.159,0,0,0-1.159,1.159V74.584ZM59.07,53.956a8.085,8.085,0,1,1,8.085,8.087A8.1,8.1,0,0,1,59.07,53.956Zm9.805,2.263a.693.693,0,0,1-.395.5,3.227,3.227,0,0,1-1.984.158,1.793,1.793,0,0,1-1.211-.665,1.155,1.155,0,1,0-2.029,1.105,3.992,3.992,0,0,0,2.739,1.818v.679a1.159,1.159,0,1,0,2.319,0v-.637a3.613,3.613,0,0,0,2.1-1.057,2.964,2.964,0,0,0,.747-1.538,2.8,2.8,0,0,0-.251-1.7,3.3,3.3,0,0,0-1.574-1.453,8.6,8.6,0,0,0-1.947-.638,4.955,4.955,0,0,1-1.62-.558.645.645,0,0,1-.274-.407c-.017-.244.214-.442.406-.545a2.833,2.833,0,0,1,1.53-.249,2.187,2.187,0,0,1,1.292.467.641.641,0,0,1,.122.157,1.157,1.157,0,0,0,2.038-1.1,2.941,2.941,0,0,0-.557-.727,4.18,4.18,0,0,0-2.009-1.006v-.666a1.159,1.159,0,0,0-2.319,0v.659a4.459,4.459,0,0,0-1.193.425,2.912,2.912,0,0,0-1.62,2.737,2.809,2.809,0,0,0,.894,1.845,3.492,3.492,0,0,0,.277.238,6.37,6.37,0,0,0,2.507.984,6.723,6.723,0,0,1,1.449.457c.29.144.626.337.566.713ZM54.483,53.957A12.672,12.672,0,1,1,67.154,66.629,12.7,12.7,0,0,1,54.483,53.957m2.268,0a10.4,10.4,0,1,0,10.4-10.4A10.417,10.417,0,0,0,56.75,53.956Z" fill="#0f3c66" fill-rule="evenodd"/>
  </g>
</svg>
