<svg id="calculator-1" xmlns="http://www.w3.org/2000/svg" xmlns:xlink="http://www.w3.org/1999/xlink" width="68.877" height="68.879" viewBox="0 0 68.877 68.879">
  <defs>
    <clipPath id="clip-path">
      <rect id="Rectangle_147" data-name="Rectangle 147" width="68.877" height="68.879" fill="#0f3c66"/>
    </clipPath>
  </defs>
  <g id="Group_189" data-name="Group 189" clip-path="url(#clip-path)">
    <path id="Path_1983" data-name="Path 1983" d="M50.1,208.172a14.007,14.007,0,0,1-6.765,1.514,14.006,14.006,0,0,1-6.765-1.514v27.436a18.253,18.253,0,0,1,1.845-.092,14.007,14.007,0,0,1,6.765,1.514v-8.894c0-1.968,1.948-3.587,4.92-4.385Z" transform="translate(-31.652 -180.167)" fill="#0f3c66"/>
    <path id="Path_1984" data-name="Path 1984" d="M6.765,429.712c3.736,0,6.765,1.1,6.765,2.46s-3.029,2.46-6.765,2.46S0,433.531,0,432.172s3.029-2.46,6.765-2.46" transform="translate(0 -371.903)" fill="#0f3c66"/>
    <path id="Path_1985" data-name="Path 1985" d="M0,473.315v2.744c0,.984,2.7,2.46,6.765,2.46s6.765-1.476,6.765-2.46v-2.744a14.007,14.007,0,0,1-6.765,1.514A14.007,14.007,0,0,1,0,473.315" transform="translate(0 -409.64)" fill="#0f3c66"/>
    <path id="Path_1986" data-name="Path 1986" d="M242.686,11.229a5.3,5.3,0,0,0,3.152,1.061,26.621,26.621,0,0,1-2.513-5.812,1.23,1.23,0,0,1,2.37-.66,22.772,22.772,0,0,0,3.1,6.481h1.264a22.564,22.564,0,0,0,3.1-6.48,1.231,1.231,0,1,1,2.371.659,26.608,26.608,0,0,1-2.51,5.807,5.276,5.276,0,0,0,3.087-1.057c2.879-2.251,3.889-5.83,4.221-8.438a1.128,1.128,0,0,0-.525-1.127,1.278,1.278,0,0,0-1.4,0,5.207,5.207,0,0,1-2.879.795A5.546,5.546,0,0,1,251.7.958a3.237,3.237,0,0,0-4.6,0,5.551,5.551,0,0,1-3.838,1.5,5.182,5.182,0,0,1-2.866-.79,1.305,1.305,0,0,0-.7-.205,1.324,1.324,0,0,0-.706.207,1.124,1.124,0,0,0-.523,1.123C238.8,5.4,239.809,8.978,242.686,11.229Z" transform="translate(-206.375 0.001)" fill="#0f3c66"/>
    <path id="Path_1987" data-name="Path 1987" d="M98.193,36.569c3.736,0,6.765,1.1,6.765,2.46s-3.029,2.46-6.765,2.46-6.765-1.1-6.765-2.46,3.029-2.46,6.765-2.46" transform="translate(-79.128 -31.649)" fill="#0f3c66"/>
    <path id="Path_1988" data-name="Path 1988" d="M43.336,164.569c3.736,0,6.765,1.1,6.765,2.46s-3.029,2.46-6.765,2.46-6.765-1.1-6.765-2.46,3.029-2.46,6.765-2.46" transform="translate(-31.651 -142.429)" fill="#0f3c66"/>
    <path id="Path_1989" data-name="Path 1989" d="M147.045,109.011c-4-16.987-14.689-23.937-17.939-25.7a7.771,7.771,0,0,1-1.886.633L129.5,86.08a1.231,1.231,0,1,1-1.679,1.8l-4.017-3.75h-.394v3.69a1.23,1.23,0,1,1-2.46,0V84.13h-.394l-4.017,3.75a1.231,1.231,0,0,1-1.68-1.8l2.272-2.119a7.8,7.8,0,0,1-1.9-.631,32.335,32.335,0,0,0-8.163,6.542c-.01.01-.018.021-.028.032a37.273,37.273,0,0,0-2.531,3.081,1.23,1.23,0,0,1-1.983-1.455c.8-1.095,1.619-2.082,2.428-2.989V80.153a15.857,15.857,0,0,1-13.53,0v8.91c4.948.159,8.61,2.214,8.61,4.9v18.542a18.253,18.253,0,0,1,1.845-.092c5.258,0,9.225,2.116,9.225,4.92v13.53h22.374c1.285,0,7.893-.246,11.7-5.043C148.159,122.063,148.786,116.406,147.045,109.011Zm-18.717-.282a4.92,4.92,0,0,1-4.92,4.92v1.23a1.23,1.23,0,0,1-2.46,0v-1.23a4.92,4.92,0,0,1-4.92-4.92,1.23,1.23,0,0,1,2.46,0,2.46,2.46,0,0,0,2.46,2.46v-4.92a4.92,4.92,0,0,1,0-9.84V95.2a1.23,1.23,0,0,1,2.46,0v1.23a4.92,4.92,0,0,1,4.92,4.92,1.23,1.23,0,1,1-2.46,0,2.46,2.46,0,0,0-2.46-2.46v4.92a4.92,4.92,0,0,1,4.92,4.92m14.926,15.563c-3.1,3.919-8.685,4.117-9.772,4.117a1.23,1.23,0,1,1,0-2.46c.889,0,5.443-.154,7.842-3.184a9.419,9.419,0,0,0,1.731-5.486,1.246,1.246,0,0,1,1.288-1.17,1.23,1.23,0,0,1,1.17,1.288A11.808,11.808,0,0,1,143.255,124.292Z" transform="translate(-79.129 -69.37)" fill="#0f3c66"/>
    <path id="Path_1990" data-name="Path 1990" d="M292.571,221.886a2.46,2.46,0,0,0,2.46,2.46v-4.92a2.46,2.46,0,0,0-2.46,2.46" transform="translate(-253.211 -189.907)" fill="#0f3c66"/>
    <path id="Path_1991" data-name="Path 1991" d="M329.143,279.2a2.46,2.46,0,1,0,0-4.92Z" transform="translate(-284.863 -237.385)" fill="#0f3c66"/>
    <path id="Path_1992" data-name="Path 1992" d="M118.857,381.886V394.47c0,.984,2.7,2.46,6.765,2.46s6.765-1.476,6.765-2.46V381.886a15.869,15.869,0,0,1-13.53,0" transform="translate(-102.867 -330.511)" fill="#0f3c66"/>
    <path id="Path_1993" data-name="Path 1993" d="M125.622,338.284c3.736,0,6.765,1.1,6.765,2.46s-3.029,2.46-6.765,2.46-6.765-1.1-6.765-2.46,3.029-2.46,6.765-2.46" transform="translate(-102.867 -292.775)" fill="#0f3c66"/>
    <path id="Path_1994" data-name="Path 1994" d="M394.176,27.045c0,2.017-2.189,3.665-4.92,3.69a6.281,6.281,0,0,1-1.365-.148.925.925,0,0,1-.234.209c.2.123.418.258.652.394.75.492,1.624,1.095,2.583,1.845.1.074.184.148.283.234,6.125.455,8.069,3.013,8.13,3.087a1.23,1.23,0,0,0,1.021.529,1.156,1.156,0,0,0,.677-.209,1.23,1.23,0,0,0,.344-1.7c-.1-.148-1.8-2.583-6.753-3.7a5.624,5.624,0,0,0,2.042-4.231,6.345,6.345,0,0,0-4.711-5.744,1.675,1.675,0,0,1-.025.246,18.854,18.854,0,0,1-.418,2.226,3.758,3.758,0,0,1,2.694,3.272" transform="translate(-335.505 -18.435)" fill="#0f3c66"/>
  </g>
</svg>
