<svg id="Group_331" data-name="Group 331" xmlns="http://www.w3.org/2000/svg" width="79.845" height="79.771"
    viewBox="0 0 79.845 79.771">
    <path id="Path_2232" data-name="Path 2232"
        d="M0,25.055A24.96,24.96,0,0,0,20.091,49.532a32.237,32.237,0,0,1,2.72-10.344,11.255,11.255,0,0,1-7.84-9.591h-2.5V27.471H14.8V25.3c0-.23,0-.464.02-.674H12.476V22.5h2.55c1.123-6.228,6-9.921,13.324-9.921A17.951,17.951,0,0,1,32.437,13v3.658a17.266,17.266,0,0,0-4.067-.409c-4.586,0-7.675,2.325-8.653,6.248h9.566v2.131H19.4c-.015.23-.015.484-.015.734v2.106h9.9V29.6H19.612a7.774,7.774,0,0,0,5.015,6.133A32.437,32.437,0,0,1,49.429,20.2,24.962,24.962,0,0,0,0,25.055ZM79.845,52.5A27.447,27.447,0,1,1,52.4,25.055,27.447,27.447,0,0,1,79.845,52.5ZM41.17,59.1c.344,4.167,3.723,7.411,9.8,7.795v3.074h2.695V66.874c6.283-.429,9.961-3.693,9.961-8.434,0-4.317-2.81-6.537-7.835-7.685l-2.126-.5V41.893c2.695.3,4.411,1.732,4.821,3.718h4.731c-.349-4.012-3.887-7.151-9.551-7.5V35.036H50.971v3.139c-5.37.514-9.022,3.653-9.022,8.094,0,3.927,2.715,6.428,7.236,7.451l1.787.424v8.883c-2.765-.4-4.591-1.876-5.005-3.927Zm9.781-9.457c-2.655-.6-4.092-1.816-4.092-3.653,0-2.046,1.552-3.588,4.112-4.037v7.685h-.025Zm3.1,5.21c3.219.724,4.706,1.9,4.706,3.972,0,2.365-1.846,3.992-5.09,4.292V54.763l.384.09Z"
        transform="translate(0 -0.178)" fill="#0f3c66"></path>
</svg>