<svg id="credit-card" xmlns="http://www.w3.org/2000/svg" width="44.047" height="37.136" viewBox="0 0 44.047 37.136">
  <path id="Path_2046" data-name="Path 2046" d="M0,155.789a1.29,1.29,0,0,0,1.29,1.29H6.911V150.7H6.819a1.29,1.29,0,0,1,0-2.581H37.228a1.29,1.29,0,0,1,0,2.581h-.092v6.379h5.62a1.29,1.29,0,0,0,1.29-1.29V144.321H0Z" transform="translate(0 -135.361)" fill="#8e94aa"/>
  <path id="Path_2047" data-name="Path 2047" d="M44.047,41.457a1.29,1.29,0,0,0-1.29-1.29H1.29A1.29,1.29,0,0,0,0,41.457v5.089H44.047Z" transform="translate(0 -40.167)" fill="#8e94aa"/>
  <path id="Path_2048" data-name="Path 2048" d="M335.267,240.274h1.658a4.055,4.055,0,0,0,4.055-4.055V218.478h-5.712Z" transform="translate(-306.424 -203.138)" fill="#8e94aa"/>
  <path id="Path_2049" data-name="Path 2049" d="M110.333,236.219a4.055,4.055,0,0,0,4.055,4.055H127.1v-21.8h-16.77Zm2.948-12.653a1.29,1.29,0,0,1,2.581,0v9.888a1.29,1.29,0,0,1-2.581,0Z" transform="translate(-100.841 -203.138)" fill="#8e94aa"/>
</svg>
