<svg xmlns="http://www.w3.org/2000/svg" width="45.677" height="45.669" viewBox="0 0 45.677 45.669">
  <g id="currency" transform="translate(-2.995 -3)" opacity="0.3">
    <path id="Path_2283" data-name="Path 2283" d="M10.874,18.749A7.874,7.874,0,1,0,3,10.875,7.883,7.883,0,0,0,10.874,18.749Zm.394-7.087H10.48a1.968,1.968,0,0,1-.394-3.9V6.938a.787.787,0,1,1,1.575,0v.787h.787a.787.787,0,1,1,0,1.575H10.48a.394.394,0,0,0,0,.787h.787a1.968,1.968,0,0,1,.394,3.9v.827a.787.787,0,0,1-1.575,0v-.787H9.3a.787.787,0,1,1,0-1.575h1.968a.394.394,0,1,0,0-.787Z" transform="translate(-0.001 0)" fill="#8e94aa"/>
    <path id="Path_2284" data-name="Path 2284" d="M52.181,52H51v.787h1.181a.394.394,0,0,0,0-.787Z" transform="translate(-10.206 -10.418)" fill="#8e94aa"/>
    <path id="Path_2285" data-name="Path 2285" d="M52.181,49H51v.787h1.181a.394.394,0,0,0,0-.787Z" transform="translate(-10.206 -9.78)" fill="#8e94aa"/>
    <path id="Path_2286" data-name="Path 2286" d="M48.874,41a7.874,7.874,0,1,0,7.874,7.874A7.883,7.883,0,0,0,48.874,41Zm3.15,9.055a1.971,1.971,0,0,1-1.968,1.968h-.394v.787a.787.787,0,0,1-1.575,0v-.787H46.512a.787.787,0,1,1,0-1.575H47.3V47.3h-.787a.787.787,0,1,1,0-1.575h1.575v-.787a.787.787,0,0,1,1.575,0v.787h.394a1.968,1.968,0,0,1,1.574,3.15A1.958,1.958,0,0,1,52.024,50.056Z" transform="translate(-8.08 -8.079)" fill="#8e94aa"/>
    <path id="Path_2287" data-name="Path 2287" d="M17.154,52.346a.788.788,0,1,0-1.47.565l.1.27A22.219,22.219,0,0,1,4.544,39.617a.788.788,0,0,0-1.514.433A23.809,23.809,0,0,0,15.267,54.683l-.334.142a.788.788,0,0,0-.417,1.032.8.8,0,0,0,1.033.417l1.978-.84a.788.788,0,0,0,.427-1.007Z" transform="translate(0 -7.668)" fill="#8e94aa"/>
    <path id="Path_2288" data-name="Path 2288" d="M42.793,6.991a.788.788,0,1,0,1.47-.565l-.1-.27A22.219,22.219,0,0,1,55.4,19.721a.788.788,0,0,0,1.514-.433A23.809,23.809,0,0,0,44.68,4.655l.334-.142A.787.787,0,1,0,44.4,3.063L42.42,3.9a.788.788,0,0,0-.427,1.007Z" transform="translate(-8.28 0)" fill="#8e94aa"/>
    <path id="Path_2289" data-name="Path 2289" d="M41.662,30.512A34.706,34.706,0,0,0,41.232,25H33V36.024h8.231A34.706,34.706,0,0,0,41.662,30.512Z" transform="translate(-6.379 -4.677)" fill="#8e94aa"/>
    <path id="Path_2290" data-name="Path 2290" d="M33,9.083V20.042h7.936C39.618,13.942,36.628,9.632,33,9.083Z" transform="translate(-6.379 -1.293)" fill="#8e94aa"/>
    <path id="Path_2291" data-name="Path 2291" d="M20,30.512a34.707,34.707,0,0,0,.43,5.512h8.231V25H20.43A34.705,34.705,0,0,0,20,30.512Z" transform="translate(-3.615 -4.677)" fill="#8e94aa"/>
    <path id="Path_2292" data-name="Path 2292" d="M28.858,51.96V41H20.922C22.24,47.1,25.23,51.41,28.858,51.96Z" transform="translate(-3.811 -8.079)" fill="#8e94aa"/>
    <path id="Path_2293" data-name="Path 2293" d="M24.125,12.34a9.362,9.362,0,0,1-2.968,6.7c-.087.331-.165.661-.236,1h7.937V9.081a7.48,7.48,0,0,0-4.732,3.26Z" transform="translate(-3.811 -1.293)" fill="#8e94aa"/>
    <path id="Path_2294" data-name="Path 2294" d="M40.937,41H33V51.961a7.48,7.48,0,0,0,4.732-3.26A9.362,9.362,0,0,1,40.7,42c.087-.331.165-.661.236-1Z" transform="translate(-6.379 -8.079)" fill="#8e94aa"/>
    <path id="Path_2295" data-name="Path 2295" d="M52.061,36.024a18.084,18.084,0,0,0,0-11.024H45.483a37.519,37.519,0,0,1,0,11.024Z" transform="translate(-9.033 -4.677)" fill="#8e94aa"/>
    <path id="Path_2296" data-name="Path 2296" d="M50.089,20.259A18.2,18.2,0,0,0,38.958,10.1c2.248,2.2,3.967,5.762,4.86,10.156Z" transform="translate(-7.646 -1.51)" fill="#8e94aa"/>
    <path id="Path_2297" data-name="Path 2297" d="M9.791,25a18.084,18.084,0,0,0,0,11.024h6.688a37.519,37.519,0,0,1,0-11.024Z" transform="translate(-1.262 -4.677)" fill="#8e94aa"/>
    <path id="Path_2298" data-name="Path 2298" d="M10.766,41a18.2,18.2,0,0,0,11.3,10.211c-2.275-2.2-4.015-5.781-4.916-10.211Z" transform="translate(-1.652 -8.079)" fill="#8e94aa"/>
  </g>
</svg>
