<svg xmlns="http://www.w3.org/2000/svg" width="55.423" height="55.477" viewBox="0 0 55.423 55.477">
  <g id="integrity" transform="translate(-0.001 0)">
    <path id="Path_2315" data-name="Path 2315" d="M50.128,45.783A6.272,6.272,0,0,0,47.1,36.105a21.12,21.12,0,0,0,2.122-8.743V9.731L27.718,0,6.211,9.731V27.362a20.439,20.439,0,0,0,2.1,8.74A6.273,6.273,0,0,0,5.28,45.79,8.8,8.8,0,0,0,0,53.843v1.634H55.424V53.843a8.8,8.8,0,0,0-5.3-8.06Zm-2.033-3.734a3.01,3.01,0,1,1-3.01-3.01A3.014,3.014,0,0,1,48.094,42.048ZM45.956,27.362a18.931,18.931,0,0,1-2.436,8.606,6.289,6.289,0,0,0-4.714,6.08c0,.126.005.25.012.374A57.351,57.351,0,0,1,34.4,46.73a8.815,8.815,0,0,0-1.657-.947,6.273,6.273,0,0,0-3.387-9.789V33.438a12.512,12.512,0,0,0,0-24.809v-4.3l16.6,7.514ZM24.685,42.048a3.01,3.01,0,1,1,3.01,3.011,3.014,3.014,0,0,1-3.01-3.011ZM27.718,11.79a9.243,9.243,0,1,1-9.243,9.243,9.254,9.254,0,0,1,9.243-9.243Zm-18.238.049,16.6-7.514v4.3a12.511,12.511,0,0,0,0,24.809v2.543a6.274,6.274,0,0,0-3.426,9.809,8.752,8.752,0,0,0-1.612.919,51.59,51.59,0,0,1-4.459-4.32q.01-.17.01-.342a6.289,6.289,0,0,0-4.688-6.073,18.009,18.009,0,0,1-2.429-8.613Zm.839,27.2a3.01,3.01,0,1,1-3.01,3.011A3.014,3.014,0,0,1,10.318,39.038Zm-6.8,13.17a5.526,5.526,0,0,1,5.269-3.882h3.089a5.526,5.526,0,0,1,5.269,3.882Zm17.378,0a5.525,5.525,0,0,1,5.269-3.882h3.089a5.526,5.526,0,0,1,5.269,3.882Zm17.389,0a5.525,5.525,0,0,1,5.269-3.882H46.64a5.525,5.525,0,0,1,5.269,3.882Zm0,0" fill="#0f3c66"/>
    <path id="Path_2316" data-name="Path 2316" d="M200.211,162.193l8.781-8.781-2.473-2.473-6.308,6.308-2.882-2.882-2.474,2.473Zm0,0" transform="translate(-174.206 -134.853)" fill="#0f3c66"/>
  </g>
</svg>
