<svg xmlns="http://www.w3.org/2000/svg" width="26.151" height="33.283" viewBox="0 0 26.151 33.283">
  <g id="location" transform="translate(-30 -12)">
    <path id="Path_2097" data-name="Path 2097" d="M43.075,12A13.091,13.091,0,0,0,30,25.076a12.944,12.944,0,0,0,2.634,7.845s.357.47.415.537L43.075,45.283,53.107,33.452c.052-.063.41-.531.41-.531v0a12.939,12.939,0,0,0,2.633-7.842A13.091,13.091,0,0,0,43.075,12Zm0,17.83a4.755,4.755,0,1,1,4.755-4.755,4.755,4.755,0,0,1-4.755,4.755Z" transform="translate(0)" fill="#fff"/>
    <ellipse id="IconifyId-17e9079768a-d1151c-107" cx="4.738" cy="5.132" rx="4.738" ry="5.132" transform="translate(38.338 19.956)" fill="none"/>
  </g>
</svg>
