<svg xmlns="http://www.w3.org/2000/svg" width="23.269" height="18.017" viewBox="0 0 23.269 18.017">
  <g id="mail" transform="translate(-22.08 -38.763)">
    <g id="Group_438" data-name="Group 438" transform="translate(22.08 38.763)">
      <path id="Path_2318" data-name="Path 2318" d="M44.576,38.763H22.852a.773.773,0,0,0-.772.773V41.09a.262.262,0,0,0,.141.187L33.64,47.8a.2.2,0,0,0,.194,0l11.073-6.514c.062-.035.227-.127.289-.169s.152-.1.152-.189v-1.39A.773.773,0,0,0,44.576,38.763Z" transform="translate(-22.08 -38.763)" fill="#0f3c66"/>
      <path id="Path_2319" data-name="Path 2319" d="M134.2,68.3a.2.2,0,0,0-.195,0l-6.267,3.687a.192.192,0,0,0-.044.3l6.267,6.756a.191.191,0,0,0,.141.062.193.193,0,0,0,.193-.193V68.471A.193.193,0,0,0,134.2,68.3Z" transform="translate(-111.032 -63.633)" fill="#0f3c66"/>
      <path id="Path_2320" data-name="Path 2320" d="M38.546,99.407a.192.192,0,0,0-.239-.036L35.8,100.849a.98.98,0,0,1-.969.006l-2.211-1.263a.193.193,0,0,0-.227.026l-8.394,7.786a.193.193,0,0,0,.034.308.747.747,0,0,0,.385.113h21.5a.193.193,0,0,0,.141-.325Z" transform="translate(-23.641 -89.81)" fill="#0f3c66"/>
      <path id="Path_2321" data-name="Path 2321" d="M28.98,73.332a.193.193,0,0,0-.035-.309l-6.577-3.757a.193.193,0,0,0-.288.168v9.857a.192.192,0,0,0,.324.141Z" transform="translate(-22.08 -64.444)" fill="#0f3c66"/>
    </g>
  </g>
</svg>
