<svg xmlns="http://www.w3.org/2000/svg" width="73.765" height="73.766" viewBox="0 0 73.765 73.766">
  <g id="newspaper" transform="translate(-12.16 -12.16)">
    <rect id="Rectangle_157" data-name="Rectangle 157" width="15.807" height="15.807" rx="6.08" transform="translate(22.698 25.332)" fill="none"/>
    <path id="Path_2008" data-name="Path 2008" d="M166.642,42.56H158.08V92.615a5.269,5.269,0,0,0,10.538,0V44.536A1.976,1.976,0,0,0,166.642,42.56Z" transform="translate(-82.693 -17.228)" fill="#0f3c66"/>
    <path id="Path_2009" data-name="Path 2009" d="M77.882,85.555a10.556,10.556,0,0,1-7.763-10.167V14.136a1.976,1.976,0,0,0-1.976-1.976H14.136a1.976,1.976,0,0,0-1.976,1.976V76.7a9.221,9.221,0,0,0,9.221,9.221H77.833a.188.188,0,0,0,.049-.37ZM22.7,41.139V25.332H38.5V41.139ZM59.581,72.753H22.7V67.484H59.581Zm0-10.538H22.7V56.946H59.581Zm0-10.538H22.7V46.408H59.581Zm0-10.538H43.774V35.87H59.581Zm0-10.538H43.774V25.332H59.581Z" transform="translate(0)" fill="#0f3c66"/>
  </g>
</svg>
