<svg xmlns="http://www.w3.org/2000/svg" width="34.086" height="39.486" viewBox="0 0 34.086 39.486">
  <path id="profit" d="M77.442,34.347,71.813,42.11a5.556,5.556,0,0,1-4.6,2.421H56.985a2.943,2.943,0,0,0-2.218.96L47.6,38.32l3.2-3.128a5.219,5.219,0,0,1,3.767-1.561h3.012a5.106,5.106,0,0,1,2.664.714l.924.535h6.67A2.141,2.141,0,0,1,69.6,38.224a2.19,2.19,0,0,1-1.781.933H61.585a.481.481,0,1,0,0,.962h6.234a3.109,3.109,0,0,0,3.1-3.283l4.145-4.477a1.562,1.562,0,0,1,2.382,1.988ZM46.854,38.941a1.1,1.1,0,0,0-1.556,0l-1.331,1.331a1.1,1.1,0,0,0,0,1.556l7.346,7.346a1.1,1.1,0,0,0,1.556,0L54.2,47.845a1.107,1.107,0,0,0,0-1.558l-7.346-7.346ZM62.527,25.748a6.851,6.851,0,0,1-1.693,4.666,10.321,10.321,0,0,0,15.629-8.848H67.1L62.372,24.3a6.779,6.779,0,0,1,.155,1.449ZM60.2,15.965l-1.276,2.277h.448a1.447,1.447,0,0,1,1.008,2.48,7.425,7.425,0,0,1,1.715,2.63l4.054-2.341V11.247a10.294,10.294,0,0,0-7.758,3.515,3.1,3.1,0,0,1,1.809,1.2Zm7.844-5.956v9.66H77.7A9.66,9.66,0,0,0,68.042,10.009Zm-19.6,15.739A6.181,6.181,0,0,1,50.6,21.132h8.807a6.173,6.173,0,0,1,2.157,4.616c0,8.181-13.12,8.181-13.12,0Zm9.371-7.505,1.19-2.123a2.123,2.123,0,0,0-2.666,0,2.126,2.126,0,0,0-2.669,0,2.123,2.123,0,0,0-2.666,0l1.19,2.123ZM50.64,20.169h8.729a.481.481,0,1,0,0-.962H50.64a.481.481,0,0,0,0,.962Z" transform="translate(-43.646 -10.009)" fill="#0f3c66"/>
</svg>
