<svg xmlns="http://www.w3.org/2000/svg" width="31.298" height="36.39" viewBox="0 0 31.298 36.39">
                                <path id="sme_17320649" d="M54.209,12.681l1.9,4.92H51.995v-4.92Zm8.343,4.92h4.126l-3.261-4.92H59.695ZM51.995,19.826c0,.015,0,.029,0,.046h0a2.176,2.176,0,1,0,4.351,0V18.64H51.995ZM61.354,17.6,58.5,12.681H55.316l1.9,4.92Zm-1.8,4.446a2.181,2.181,0,0,0,2.177-2.175V18.64H57.384v1.233A2.181,2.181,0,0,0,59.558,22.047ZM47.633,12.681H44.455L41.6,17.6h4.135Zm-6.448,18.56H51.2V27.165H41.185Zm0,2.116H51.2V32.279H41.185ZM39.538,21.409a2.17,2.17,0,0,0,.641-1.536V18.64H35.826v1.233a2.17,2.17,0,0,0,.641,1.536,2.2,2.2,0,0,0,.96.561l.021.006a2.194,2.194,0,0,0,.554.071,2.165,2.165,0,0,0,1.536-.638ZM56.1,27.165h5.788V36.39H56.1ZM59.976,32.4a.519.519,0,1,0,1.038,0V31.159a.519.519,0,1,0-1.038,0Zm2.8-13.759v1.233a2.176,2.176,0,0,0,2.729,2.1l.023-.006a2.2,2.2,0,0,0,.96-.561,2.168,2.168,0,0,0,.639-1.536V18.64Zm2.177,4.446q.091,0,.183-.006v13.1a.212.212,0,0,1-.21.208h-2V26.646a.52.52,0,0,0-.519-.519H55.581a.519.519,0,0,0-.519.519V36.39H38.03a.208.208,0,0,1-.147-.061.2.2,0,0,1-.063-.147v-13.1q.091.006.183.006a3.2,3.2,0,0,0,2.269-.943,3.289,3.289,0,0,0,.427-.524,3.163,3.163,0,0,0,.424.523,3.2,3.2,0,0,0,4.54,0,3.4,3.4,0,0,0,.424-.523,3.164,3.164,0,0,0,.424.523,3.2,3.2,0,0,0,4.54,0,3.4,3.4,0,0,0,.424-.523,3.278,3.278,0,0,0,.424.523,3.2,3.2,0,0,0,4.54,0,3.28,3.28,0,0,0,.424-.523,3.275,3.275,0,0,0,.424.523A3.207,3.207,0,0,0,64.949,23.085ZM52.236,26.646a.519.519,0,0,0-.519-.519H40.667a.52.52,0,0,0-.519.519v7.23a.52.52,0,0,0,.519.519H51.717a.519.519,0,0,0,.519-.519v-7.23Zm-4.992-5.238a2.177,2.177,0,0,0,3.712-1.536h0a.362.362,0,0,1,0-.046V18.639H46.606v1.2c0,.011,0,.021,0,.034h0a2.168,2.168,0,0,0,.638,1.536Zm3.712-8.727H48.743l-1.9,4.921h4.116Zm-7.7,0H39.534L36.273,17.6H40.4Zm-2.04,7.175s0,.011,0,.017h0a2.176,2.176,0,1,0,4.351,0V18.64H41.217ZM40.129,7.982V.553A.554.554,0,0,1,40.681,0H62.268a.553.553,0,0,1,.553.553V7.982a.554.554,0,0,1-.553.553H52.646l-.248.426-.922,1.6-.924-1.6L50.3,8.534H40.681a.556.556,0,0,1-.553-.553Zm15.1-1.343a.52.52,0,0,0,.519.519h3.17a.519.519,0,1,0,0-1.038H56.266V4.786h2.651a.519.519,0,1,0,0-1.038H56.266V2.414h2.651a.519.519,0,1,0,0-1.038h-3.17a.52.52,0,0,0-.519.519Zm-5.855,0a.517.517,0,1,0,1.034,0V3.712l.628,1.017a.52.52,0,0,0,.712.168.511.511,0,0,0,.172-.176l.626-1.008,0,2.927a.517.517,0,1,0,1.034,0l0-4.734a.517.517,0,0,0-.956-.282L51.476,3.475,50.329,1.624a.516.516,0,0,0-.956.271ZM46.686,5.452a.675.675,0,0,1-.668.668h-.8a.674.674,0,0,1-.668-.668.519.519,0,1,0-1.038,0,1.711,1.711,0,0,0,1.706,1.706h.8a1.7,1.7,0,1,0,0-3.41h-.8a.667.667,0,0,1,0-1.334h.8a.671.671,0,0,1,.668.666.519.519,0,0,0,1.038,0,1.711,1.711,0,0,0-1.706-1.7h-.8a1.7,1.7,0,1,0,0,3.41h.8a.669.669,0,0,1,.668.666Z" transform="translate(-35.826 0)" fill="#0f3c66" fill-rule="evenodd"></path>
                            </svg>