<svg xmlns="http://www.w3.org/2000/svg" width="18.404" height="19.822" viewBox="0 0 18.404 19.822">
  <g id="share" transform="translate(-11.849 -11.809)">
    <path id="Path_2043" data-name="Path 2043" d="M26.717,24.559A3.536,3.536,0,0,0,23.966,25.9L18.8,22.664a3.154,3.154,0,0,0,0-1.867l5.169-3.232a3.536,3.536,0,1,0-.785-2.2,3.387,3.387,0,0,0,.141.933l-5.169,3.232a3.536,3.536,0,1,0,0,4.4l5.169,3.232a3.387,3.387,0,0,0-.141.933,3.536,3.536,0,1,0,3.536-3.536Zm0-11.314A2.121,2.121,0,1,1,24.6,15.367,2.121,2.121,0,0,1,26.717,13.245ZM15.4,23.852a2.121,2.121,0,1,1,2.121-2.121A2.121,2.121,0,0,1,15.4,23.852Zm11.314,6.364A2.121,2.121,0,1,1,28.839,28.1a2.121,2.121,0,0,1-2.121,2.121Z" fill="#2e2e2e"/>
  </g>
</svg>
