<svg xmlns="http://www.w3.org/2000/svg" width="61.473" height="61.466" viewBox="0 0 61.473 61.466">
  <g id="target" transform="translate(0 0)">
    <path id="Path_2088" data-name="Path 2088" d="M195.983,184.441a8.715,8.715,0,1,0,3.82,3.82l-5.848,5.848a2.7,2.7,0,0,1-3.82-3.82Z" transform="translate(-161.312 -161.45)" fill="#0f3c66"/>
    <path id="Path_2089" data-name="Path 2089" d="M156.276,136.087a14.723,14.723,0,1,0,3.818,3.818l-3.041,3.041a10.51,10.51,0,1,1-3.82-3.82Z" transform="translate(-117.235 -117.464)" fill="#0f3c66"/>
    <path id="Path_2090" data-name="Path 2090" d="M55.969,19.438a7.168,7.168,0,0,1-.674.593A26.673,26.673,0,1,1,41.368,6.1a7.685,7.685,0,0,1,.6-.674L44.35,3.049a30.719,30.719,0,1,0,14,14Z" transform="translate(-0.03 0.114)" fill="#0f3c66"/>
    <path id="Path_2091" data-name="Path 2091" d="M73.413,48.5A24.916,24.916,0,1,0,96.375,63.75a7.481,7.481,0,0,1-4.972.418l-3.9-1.027-.672.672a16.5,16.5,0,1,1-3.817-3.823l.672-.672-1.033-3.9a7.523,7.523,0,0,1,.412-4.974A24.781,24.781,0,0,0,73.413,48.5Z" transform="translate(-42.681 -42.663)" fill="#0f3c66"/>
    <path id="Path_2092" data-name="Path 2092" d="M260.225,12.287l1.288,4.9L248.6,30.1a.9.9,0,1,0,1.273,1.273l12.915-12.914,4.9,1.288a5.719,5.719,0,0,0,5.484-1.483l6.539-6.539a.9.9,0,0,0-.407-1.508l-7.564-1.988L269.755.671a.9.9,0,0,0-1.508-.407L261.708,6.8a5.724,5.724,0,0,0-1.483,5.485Z" transform="translate(-218.503 0.014)" fill="#0f3c66"/>
  </g>
</svg>
