<svg id="XMLID" xmlns="http://www.w3.org/2000/svg" width="45" height="45" viewBox="0 0 45 45">
  <path id="XMLID_3495_" d="M135,375h5.294v11.912H135Z" transform="translate(-123.088 -341.912)" fill="#fff"/>
  <path id="XMLID_3550_" d="M66.176,3.971V0H45V3.971Z" transform="translate(-41.029)" fill="#fff"/>
  <path id="XMLID_3563_" d="M390,135v3.971h10.588V135Z" transform="translate(-355.588 -123.088)" fill="#fff"/>
  <path id="XMLID_3619_" d="M345,210v26.471h14.559V210Zm6.618,21.176h-2.647v-3.971h2.647Zm0-6.618h-2.647v-3.971h2.647Zm0-6.618h-2.647v-3.971h2.647Zm5.294,13.235h-2.647v-3.971h2.647Zm0-6.618h-2.647v-3.971h2.647Zm0-6.618h-2.647v-3.971h2.647Z" transform="translate(-314.559 -191.471)" fill="#fff"/>
  <path id="XMLID_3646_" d="M0,75v30.441H9.265V98.824H19.853v6.618h7.941V75ZM7.941,96.176H5.294V92.206H7.941Zm0-6.618H5.294V85.588H7.941Zm0-6.618H5.294V78.971H7.941Zm5.294,13.235H10.588V92.206h2.647Zm0-6.618H10.588V85.588h2.647Zm0-6.618H10.588V78.971h2.647Zm5.294,13.235H15.882V92.206h2.647Zm0-6.618H15.882V85.588h2.647Zm0-6.618H15.882V78.971h2.647Zm2.647-3.971h2.647v3.971H21.176Zm0,6.618h2.647v3.971H21.176Zm0,6.618h2.647v3.971H21.176Z" transform="translate(0 -68.382)" fill="#fff"/>
  <path id="XMLID_3703_" d="M225,450v5.294h7.941V450Z" transform="translate(-205.147 -410.294)" fill="#fff"/>
  <path id="XMLID_3704_" d="M0,450v5.294H9.265V450Z" transform="translate(0 -410.294)" fill="#fff"/>
</svg>
