<svg id="expenses_2171431" xmlns="http://www.w3.org/2000/svg" width="30.9" height="30.9" viewBox="0 0 30.9 30.9">
    <path id="Path_2121" data-name="Path 2121" d="M7,54.142v1.523H8.523A2.126,2.126,0,0,0,7,54.142Z"
        transform="translate(-4.869 -26.895)" fill="#0f3c66">
    </path>
    <path id="Path_2122" data-name="Path 2122"
        d="M12.328,43.795A5.855,5.855,0,0,1,14.829,39H9.616A3.2,3.2,0,0,1,7,41.616v4.359A3.2,3.2,0,0,1,9.616,48.59H14.83A5.856,5.856,0,0,1,12.328,43.795Z"
        transform="translate(-4.869 -19.82)" fill="#0f3c66">
    </path>
    <path id="Path_2123" data-name="Path 2123"
        d="M28.59,43.795a4.795,4.795,0,1,0-4.795,4.795A4.8,4.8,0,0,0,28.59,43.795Zm-3.2-1.6H23.262v1.066h2.131v3.2H24.328v1.066H23.262V46.459H22.2V45.393h2.131V44.328H22.2v-3.2h1.066V40.066h1.066v1.066h1.066Z"
        transform="translate(-10.476 -19.82)" fill="#0f3c66">
    </path>
    <path id="Path_2124" data-name="Path 2124" d="M46.142,55.665h1.523V54.142A2.126,2.126,0,0,0,46.142,55.665Z"
        transform="translate(-23.157 -26.895)" fill="#0f3c66">
    </path>
    <path id="Path_2125" data-name="Path 2125" d="M8.523,39H7v1.523A2.126,2.126,0,0,0,8.523,39Z"
        transform="translate(-4.869 -19.82)" fill="#0f3c66">
    </path>
    <path id="Path_2126" data-name="Path 2126" d="M41.6,5.976l1.066-1.066.533.533V3H40V5.443l.533-.533Z"
        transform="translate(-20.288 -3)" fill="#0f3c66">
    </path>
    <path id="Path_2127" data-name="Path 2127"
        d="M37.254,3V8.015l-1.6-1.6L34.59,7.483,33.524,6.417l-1.6,1.6V3H25V16.852H35.655V10.459H44.18V3Z"
        transform="translate(-13.279 -3)" fill="#0f3c66">
    </path>
    <path id="Path_2128" data-name="Path 2128" d="M10.066,27.131h1.066V25H10.066a1.066,1.066,0,1,0,0,2.131Z"
        transform="translate(-5.803 -13.279)" fill="#0f3c66">
    </path>
    <path id="Path_2129" data-name="Path 2129"
        d="M39.518,39H34.3a5.846,5.846,0,0,1,0,9.59h5.214a3.2,3.2,0,0,1,2.616-2.616V41.616A3.2,3.2,0,0,1,39.518,39Z"
        transform="translate(-17.626 -19.82)" fill="#0f3c66">
    </path>
    <path id="Path_2130" data-name="Path 2130"
        d="M9,30.444v1.362H33.507V44.592h1.066V30.74H10.066A2.109,2.109,0,0,1,9,30.444Z"
        transform="translate(-5.803 -15.823)" fill="#0f3c66">
    </path>
    <path id="Path_2131" data-name="Path 2131"
        d="M47,24.328h6.393v3.2h1.066V19H47Zm3.2-4.262h3.2v1.066H50.2Zm-2.131,0h1.066v1.066H48.066Zm0,2.131h5.328v1.066H48.066Z"
        transform="translate(-23.558 -10.476)" fill="#0f3c66">
    </path>
    <path id="Path_2132" data-name="Path 2132" d="M3,48.852H29.638V35H3ZM4.066,36.066H28.573V47.786H4.066Z"
        transform="translate(-3 -17.951)" fill="#0f3c66">
    </path>
    <path id="Path_2133" data-name="Path 2133" d="M47.665,40.523V39H46.142A2.126,2.126,0,0,0,47.665,40.523Z"
        transform="translate(-23.157 -19.82)" fill="#0f3c66">
    </path>
</svg>