<svg id="surface1" xmlns="http://www.w3.org/2000/svg" width="37.391" height="32.863" viewBox="0 0 37.391 32.863">
    <path id="Path_2372" data-name="Path 2372"
        d="M35.2,3.286A3.29,3.29,0,0,0,31.913,0H3.286A3.29,3.29,0,0,0,0,3.286v1.1H35.2Zm0,0" fill="#0f3c66"></path>
    <path id="Path_2373" data-name="Path 2373"
        d="M366.865,345h-4.3c.2,4.422,1.562,7.668,2.15,7.668S366.66,349.422,366.865,345Zm0,0"
        transform="translate(-336.088 -319.805)" fill="#0f3c66">
    </path>
    <path id="Path_2374" data-name="Path 2374"
        d="M431.8,217.285a21.09,21.09,0,0,1,1.448,7.136h4.409A8.838,8.838,0,0,0,431.8,217.285Zm0,0"
        transform="translate(-400.271 -201.417)" fill="#0f3c66">
    </path>
    <path id="Path_2375" data-name="Path 2375"
        d="M364.716,210c-.587,0-1.945,3.246-2.15,7.668h4.3C366.66,213.246,365.3,210,364.716,210Zm0,0"
        transform="translate(-336.088 -194.664)" fill="#0f3c66">
    </path>
    <path id="Path_2376" data-name="Path 2376"
        d="M431.8,352.136A8.837,8.837,0,0,0,437.662,345h-4.409A21.09,21.09,0,0,1,431.8,352.136Zm0,0"
        transform="translate(-400.271 -319.805)" fill="#0f3c66">
    </path>
    <path id="Path_2377" data-name="Path 2377"
        d="M279.258,217.285a8.716,8.716,0,0,0-5.746,7.136h4.3A21.093,21.093,0,0,1,279.258,217.285Zm0,0"
        transform="translate(-253.538 -201.417)" fill="#0f3c66">
    </path>
    <path id="Path_2378" data-name="Path 2378"
        d="M279.258,352.136A21.093,21.093,0,0,1,277.81,345h-4.3A8.716,8.716,0,0,0,279.258,352.136Zm0,0"
        transform="translate(-253.538 -319.805)" fill="#0f3c66">
    </path>
    <path id="Path_2379" data-name="Path 2379" d="M90,150h4.382v2.191H90Zm0,0" transform="translate(-83.427 -139.046)"
        fill="#0f3c66">
    </path>
    <path id="Path_2380" data-name="Path 2380"
        d="M3.286,109.718H17.894A10.954,10.954,0,0,1,28.627,96.573,10.848,10.848,0,0,1,35.2,98.819V90H0v16.431A3.29,3.29,0,0,0,3.286,109.718Zm10.954-5.477a1.1,1.1,0,0,1-1.1,1.1H10.954a1.1,1.1,0,0,1,0-2.191h2.191A1.1,1.1,0,0,1,14.241,104.241ZM4.382,93.286a1.1,1.1,0,0,1,1.1-1.1H12.05a1.1,1.1,0,0,1,1.1,1.1v4.382a1.1,1.1,0,0,1-1.1,1.1H5.477a1.1,1.1,0,0,1-1.1-1.1Zm0,9.859H6.573a1.1,1.1,0,1,1,0,2.191H4.382a1.1,1.1,0,1,1,0-2.191Zm0,0"
        transform="translate(0 -83.427)" fill="#0f3c66">
    </path>
</svg>