<svg xmlns="http://www.w3.org/2000/svg" width="32.607" height="37.772" viewBox="0 0 32.607 37.772">
    <path id="profit-margin_18147886"
        d="M75.975,33.291l-5.384,7.426a5.315,5.315,0,0,1-4.4,2.316H56.406a2.815,2.815,0,0,0-2.122.918l-6.86-6.86L50.489,34.1a4.993,4.993,0,0,1,3.6-1.493h2.881a4.884,4.884,0,0,1,2.548.683l.884.511h6.381A2.048,2.048,0,0,1,68.474,37a2.1,2.1,0,0,1-1.7.892H60.807a.46.46,0,1,0,0,.921H66.77a2.974,2.974,0,0,0,2.962-3.14L73.7,31.389a1.494,1.494,0,0,1,2.279,1.9Zm-29.26,4.394a1.056,1.056,0,0,0-1.489,0l-1.273,1.273a1.056,1.056,0,0,0,0,1.489l7.027,7.027a1.056,1.056,0,0,0,1.489,0L53.742,46.2a1.059,1.059,0,0,0,0-1.491l-7.027-7.027Zm14.993-12.62a6.553,6.553,0,0,1-1.619,4.464A9.873,9.873,0,0,0,75.04,21.065H66.086l-4.527,2.614a6.485,6.485,0,0,1,.148,1.386Zm-2.229-9.358-1.221,2.179h.429a1.384,1.384,0,0,1,.964,2.372,7.1,7.1,0,0,1,1.641,2.516l3.878-2.239V11.193a9.848,9.848,0,0,0-7.421,3.362,2.966,2.966,0,0,1,1.73,1.151Zm7.5-5.7V19.25h9.243A9.241,9.241,0,0,0,66.983,10.009ZM48.236,25.065A5.913,5.913,0,0,1,50.3,20.649h8.424a5.906,5.906,0,0,1,2.063,4.416c0,7.826-12.551,7.826-12.551,0Zm8.964-7.18,1.138-2.03a2.031,2.031,0,0,0-2.551,0,2.034,2.034,0,0,0-2.553,0,2.031,2.031,0,0,0-2.551,0l1.138,2.03Zm-6.864,1.843h8.35a.46.46,0,1,0,0-.921h-8.35a.46.46,0,0,0,0,.921Z"
        transform="translate(-43.646 -10.009)" fill="#0f3c66">
    </path>
</svg>