<svg xmlns="http://www.w3.org/2000/svg" width="40.134" height="34.045" viewBox="0 0 40.134 34.045">
    <g id="group_681494" transform="translate(0 -38.84)">
        <g id="Group_423" data-name="Group 423" transform="translate(31.237 57.22)">
            <g id="Group_422" data-name="Group 422" transform="translate(0 0)">
                <path id="Path_2312" data-name="Path 2312"
                    d="M401.6,273.32h-3.1a8.074,8.074,0,0,1,.489,2.775v11.731a3.46,3.46,0,0,1-.2,1.159h5.131a3.48,3.48,0,0,0,3.476-3.476v-6.395A5.8,5.8,0,0,0,401.6,273.32Z"
                    transform="translate(-398.494 -273.32)" fill="#0f3c66"></path>
            </g>
        </g>
        <g id="Group_425" data-name="Group 425" transform="translate(0 57.22)">
            <g id="Group_424" data-name="Group 424" transform="translate(0 0)">
                <path id="Path_2313" data-name="Path 2313"
                    d="M8.408,276.1a8.073,8.073,0,0,1,.489-2.775h-3.1A5.8,5.8,0,0,0,0,279.115v6.395a3.48,3.48,0,0,0,3.476,3.476H8.607a3.46,3.46,0,0,1-.2-1.159Z"
                    transform="translate(0 -273.321)" fill="#0f3c66"></path>
            </g>
        </g>
        <g id="Group_427" data-name="Group 427" transform="translate(10.726 54.202)">
            <g id="Group_426" data-name="Group 426" transform="translate(0 0)">
                <path id="Path_2314" data-name="Path 2314"
                    d="M149.718,234.815h-7.1a5.8,5.8,0,0,0-5.794,5.794v11.731a1.159,1.159,0,0,0,1.159,1.159h16.365a1.159,1.159,0,0,0,1.159-1.159V240.609A5.8,5.8,0,0,0,149.718,234.815Z"
                    transform="translate(-136.829 -234.815)" fill="#0f3c66"></path>
            </g>
        </g>
        <g id="Group_429" data-name="Group 429" transform="translate(13.099 38.84)">
            <g id="Group_428" data-name="Group 428" transform="translate(0 0)">
                <path id="Path_2315" data-name="Path 2315"
                    d="M174.081,38.84a6.966,6.966,0,1,0,6.967,6.968A6.975,6.975,0,0,0,174.081,38.84Z"
                    transform="translate(-167.114 -38.84)" fill="#0f3c66"></path>
            </g>
        </g>
        <g id="Group_431" data-name="Group 431" transform="translate(2.621 45.334)">
            <g id="Group_430" data-name="Group 430" transform="translate(0 0)">
                <path id="Path_2316" data-name="Path 2316"
                    d="M38.654,121.689a5.208,5.208,0,1,0,5.211,5.211A5.217,5.217,0,0,0,38.654,121.689Z"
                    transform="translate(-33.443 -121.689)" fill="#0f3c66"></path>
            </g>
        </g>
        <g id="Group_433" data-name="Group 433" transform="translate(27.091 45.334)">
            <g id="Group_432" data-name="Group 432" transform="translate(0 0)">
                <path id="Path_2317" data-name="Path 2317"
                    d="M350.818,121.689a5.211,5.211,0,1,0,5.211,5.211A5.217,5.217,0,0,0,350.818,121.689Z"
                    transform="translate(-345.607 -121.689)" fill="#0f3c66"></path>
            </g>
        </g>
    </g>
</svg>