<svg xmlns="http://www.w3.org/2000/svg" width="34.532" height="33.868" viewBox="0 0 34.532 33.868">
    <path id="money_18686358_1_" data-name="money_18686358 (1)"
        d="M18.139,19.617H8.178l1.1-3.32h8.049l.624,1.879.332,1,.332-1,.624-1.879H27.29l.624,1.879.332,1,.332-1L29.2,16.3h8.049l1.1,3.32Zm4.463-6.09-.624-1.879H13.929l-1.1,3.32H23.08Zm5.313-4.649L27.29,7H19.242l-1.1,3.32H28.393ZM23.93,13.528l-.478,1.441H33.705l-1.1-3.32H24.554ZM11.977,31.637V27.52a3.327,3.327,0,0,0,2.59-2.59h17.4a3.327,3.327,0,0,0,2.59,2.59v4.117a3.327,3.327,0,0,0-2.59,2.59h-17.4A3.327,3.327,0,0,0,11.977,31.637Zm16.934-2.059a1,1,0,1,0,1-1A.995.995,0,0,0,28.911,29.579Zm-13.282,0a1,1,0,1,0,1-1A.995.995,0,0,0,15.629,29.579Zm24.9,7.969V40.2a.666.666,0,0,1-.664.664H6.664A.666.666,0,0,1,6,40.2V37.547a.666.666,0,0,1,.664-.664h.784a2,2,0,0,1-.12-.664V22.938A2,2,0,0,1,9.32,20.946H37.212A2,2,0,0,1,39.2,22.938V36.219a2,2,0,0,1-.12.664h.784A.666.666,0,0,1,40.532,37.547ZM10.649,32.235a.666.666,0,0,0,.664.664A2,2,0,0,1,13.3,34.891a.666.666,0,0,0,.664.664H32.563a.666.666,0,0,0,.664-.664A2,2,0,0,1,35.219,32.9a.666.666,0,0,0,.664-.664V26.922a.666.666,0,0,0-.664-.664,2,2,0,0,1-1.992-1.992.666.666,0,0,0-.664-.664H13.969a.666.666,0,0,0-.664.664,2,2,0,0,1-1.992,1.992.666.666,0,0,0-.664.664Z"
        transform="translate(-6 -7)" fill="#0f3c66"></path>
</svg>