<svg xmlns="http://www.w3.org/2000/svg" width="36.944" height="36.859" viewBox="0 0 36.944 36.859">
    <g id="bank_6383839" transform="translate(-3 -3.134)">
        <path id="Path_2299" data-name="Path 2299" d="M43,40h4.459V50.829H43Z" transform="translate(-14.521 -13.383)"
            fill="#0f3c66">
        </path>
        <path id="Path_2300" data-name="Path 2300"
            d="M33,35V49.013h5.1V35.637A.637.637,0,0,0,37.459,35Zm2.548,7.644H34.274V40.1h1.274Z"
            transform="translate(-10.891 -11.568)" fill="#0f3c66">
        </path>
        <path id="Path_2301" data-name="Path 2301"
            d="M23,35.637V49.013h5.1V35H23.637A.637.637,0,0,0,23,35.637ZM25.548,40.1h1.274v2.548H25.548Z"
            transform="translate(-7.261 -11.568)" fill="#0f3c66">
        </path>
        <path id="Path_2302" data-name="Path 2302"
            d="M22.561,4.96a7.649,7.649,0,0,1,7.611,7.007h8.95L22.561,3.134,6,11.966h8.95A7.649,7.649,0,0,1,22.561,4.96Z"
            transform="translate(-1.089)" fill="#0f3c66">
        </path>
        <path id="Path_2303" data-name="Path 2303"
            d="M31.661,25A7.619,7.619,0,0,1,19.27,25H17.185v1.911a.637.637,0,0,1-.637.637H14v5.733h4.459V32.007A1.911,1.911,0,0,1,20.37,30.1H30.561a1.911,1.911,0,0,1,1.911,1.911v1.274h4.459v-5.1H34.383a.637.637,0,0,1-.637-.637V25Z"
            transform="translate(-3.993 -7.938)" fill="#0f3c66">
        </path>
        <path id="Path_2304" data-name="Path 2304" d="M54.007,45.383V25H47v1.911h2.548a.637.637,0,0,1,.637.637V45.383Z"
            transform="translate(-15.973 -7.938)" fill="#0f3c66">
        </path>
        <path id="Path_2305" data-name="Path 2305" d="M28.37,8a6.37,6.37,0,1,0,6.37,6.37A6.37,6.37,0,0,0,28.37,8Z"
            transform="translate(-6.898 -1.766)" fill="#0f3c66">
        </path>
        <path id="Path_2306" data-name="Path 2306"
            d="M39.307,59H3.637a.637.637,0,1,0,0,1.274h35.67a.637.637,0,0,0,0-1.274Z" transform="translate(0 -20.281)"
            fill="#0f3c66">
        </path>
        <path id="Path_2307" data-name="Path 2307" d="M14.532,21.548A7.586,7.586,0,0,1,13.861,19H3v2.548Z"
            transform="translate(0 -5.76)" fill="#0f3c66">
        </path>
        <path id="Path_2308" data-name="Path 2308" d="M43.568,19a7.586,7.586,0,0,1-.668,2.548H54.429V19Z"
            transform="translate(-14.485 -5.76)" fill="#0f3c66">
        </path>
        <path id="Path_2309" data-name="Path 2309" d="M14,40h4.459V50.829H14Z" transform="translate(-3.993 -13.383)"
            fill="#0f3c66">
        </path>
        <path id="Path_2310" data-name="Path 2310" d="M13.007,25H6V45.383H9.822V26.911a.637.637,0,0,1,.637-.637h2.548Z"
            transform="translate(-1.089 -7.938)" fill="#0f3c66">
        </path>
    </g>
</svg>