<svg xmlns="http://www.w3.org/2000/svg" width="36.479" height="36.479" viewBox="0 0 36.479 36.479">
    <g id="_x39__x5F_advertise_building" transform="translate(0 -1)">
        <g id="XMLID_133_" transform="translate(0 1)">
            <path id="XMLID_134_" d="M187,60h9.78v1.927H187Z" transform="translate(-173.651 -55.788)" fill="#0f3c66">
            </path>
            <path id="XMLID_168_" d="M136,1h17.061V4.07H136Z" transform="translate(-126.291 -1)" fill="#0f3c66"></path>
            <path id="XMLID_171_"
                d="M136,132.2h3.427v-9.78a.587.587,0,0,1,.589-.571h9.1a.587.587,0,0,1,.589.571v9.78h3.355V103H136Zm11.98-25.485h2.275a.571.571,0,0,1,0,1.142H147.98a.571.571,0,1,1,0-1.142Zm0,3.641h2.275a.571.571,0,1,1,0,1.142H147.98a.571.571,0,0,1,0-1.142Zm0,3.641h2.275a.571.571,0,0,1,0,1.142H147.98a.571.571,0,1,1,0-1.142Zm0,3.641h2.275a.571.571,0,0,1,0,1.142H147.98a.571.571,0,1,1,0-1.142Zm-4.551-10.922H145.7a.571.571,0,0,1,0,1.142h-2.275a.571.571,0,1,1,0-1.142Zm0,3.641H145.7a.571.571,0,0,1,0,1.142h-2.275a.571.571,0,1,1,0-1.142Zm0,3.641H145.7a.571.571,0,0,1,0,1.142h-2.275a.571.571,0,1,1,0-1.142Zm0,3.641H145.7a.571.571,0,1,1,0,1.142h-2.275a.571.571,0,1,1,0-1.142Zm-4.551-10.922h2.275a.571.571,0,0,1,0,1.142h-2.275a.571.571,0,1,1,0-1.142Zm0,3.641h2.275a.571.571,0,1,1,0,1.142h-2.275a.571.571,0,1,1,0-1.142Zm0,3.641h2.275a.571.571,0,0,1,0,1.142h-2.275a.571.571,0,1,1,0-1.142Zm0,3.641h2.275a.571.571,0,1,1,0,1.142h-2.275a.571.571,0,1,1,0-1.142Z"
                transform="translate(-126.291 -95.719)" fill="#0f3c66"></path>
            <path id="XMLID_722_"
                d="M0,198.17H8.566V174.044L0,177.256Zm3.105-17.632H5.532a.571.571,0,1,1,0,1.142H3.105a.571.571,0,1,1,0-1.142Zm0,4.283H5.532a.571.571,0,0,1,0,1.142H3.105a.571.571,0,0,1,0-1.142Zm0,4.212H5.532a.571.571,0,0,1,0,1.142H3.105a.571.571,0,0,1,0-1.142Zm0,4.283H5.532a.571.571,0,1,1,0,1.142H3.105a.571.571,0,1,1,0-1.142Z"
                transform="translate(0 -161.691)" fill="#0f3c66"></path>
            <path id="XMLID_1838_"
                d="M391,174.044V198.17h8.566V177.256Zm5.532,20.413h-2.427a.571.571,0,0,1,0-1.142h2.427a.571.571,0,0,1,0,1.142Zm0-4.283h-2.427a.571.571,0,0,1,0-1.142h2.427a.571.571,0,0,1,0,1.142Zm0-4.212h-2.427a.571.571,0,0,1,0-1.142h2.427a.571.571,0,0,1,0,1.142Zm0-4.283h-2.427a.571.571,0,0,1,0-1.142h2.427a.571.571,0,0,1,0,1.142Z"
                transform="translate(-363.088 -161.691)" fill="#0f3c66"></path>
            <path id="XMLID_1842_" d="M200,383h3.427v9.209H200Z" transform="translate(-185.723 -355.73)" fill="#0f3c66">
            </path>
            <path id="XMLID_1843_" d="M264,383h3.427v9.209H264Z" transform="translate(-245.154 -355.73)" fill="#0f3c66">
            </path>
        </g>
    </g>
</svg>