<svg id="arrow-return-left" xmlns="http://www.w3.org/2000/svg" width="21.323" height="18.277" viewBox="0 0 21.323 18.277">
  <g id="Group_533" data-name="Group 533" transform="translate(0 0)">
    <path id="Path_2401" data-name="Path 2401" d="M32.551,36.277a.761.761,0,0,0,.761-.761v-7.31A3.807,3.807,0,0,0,29.505,24.4H14.59l5.1-5.1a.762.762,0,1,0-1.078-1.078l-6.4,6.4a.761.761,0,0,0,0,1.078L18.3,31.79a.762.762,0,0,0,1.078-1.078L14.59,25.921H29.505a2.284,2.284,0,0,1,2.284,2.284v7.31A.761.761,0,0,0,32.551,36.277Z" transform="translate(-11.989 -18)" fill="#fff" fill-rule="evenodd"/>
  </g>
</svg>
