<svg xmlns="http://www.w3.org/2000/svg" width="62.508" height="53.025" viewBox="0 0 62.508 53.025">
    <g id="group_681494" transform="translate(0 -38.84)">
        <g id="Group_423" data-name="Group 423" transform="translate(48.651 67.467)">
            <g id="Group_422" data-name="Group 422" transform="translate(0 0)">
                <path id="Path_2312" data-name="Path 2312"
                    d="M403.328,273.32h-4.834a12.576,12.576,0,0,1,.762,4.322v18.27a5.388,5.388,0,0,1-.31,1.8h7.992a5.42,5.42,0,0,0,5.414-5.414v-9.96A9.033,9.033,0,0,0,403.328,273.32Z"
                    transform="translate(-398.494 -273.32)" fill="#ffffff"></path>
            </g>
        </g>
        <g id="Group_425" data-name="Group 425" transform="translate(0 67.467)">
            <g id="Group_424" data-name="Group 424" transform="translate(0 0)">
                <path id="Path_2313" data-name="Path 2313"
                    d="M13.1,277.643a12.574,12.574,0,0,1,.762-4.322H9.023A9.034,9.034,0,0,0,0,282.344v9.96a5.42,5.42,0,0,0,5.414,5.414h7.992a5.39,5.39,0,0,1-.31-1.8Z"
                    transform="translate(0 -273.321)" fill="#ffffff"></path>
            </g>
        </g>
        <g id="Group_427" data-name="Group 427" transform="translate(16.705 62.766)">
            <g id="Group_426" data-name="Group 426" transform="translate(0 0)">
                <path id="Path_2314" data-name="Path 2314"
                    d="M156.9,234.815H145.852a9.034,9.034,0,0,0-9.023,9.023v18.27a1.8,1.8,0,0,0,1.8,1.8h25.489a1.8,1.8,0,0,0,1.8-1.8v-18.27A9.034,9.034,0,0,0,156.9,234.815Z"
                    transform="translate(-136.829 -234.815)" fill="#ffffff"></path>
            </g>
        </g>
        <g id="Group_429" data-name="Group 429" transform="translate(20.402 38.84)">
            <g id="Group_428" data-name="Group 428" transform="translate(0 0)">
                <path id="Path_2315" data-name="Path 2315"
                    d="M177.966,38.84a10.85,10.85,0,1,0,10.852,10.852A10.864,10.864,0,0,0,177.966,38.84Z"
                    transform="translate(-167.114 -38.84)" fill="#ffffff"></path>
            </g>
        </g>
        <g id="Group_431" data-name="Group 431" transform="translate(4.083 48.955)">
            <g id="Group_430" data-name="Group 430" transform="translate(0 0)">
                <path id="Path_2316" data-name="Path 2316"
                    d="M41.559,121.689a8.112,8.112,0,1,0,8.116,8.116A8.125,8.125,0,0,0,41.559,121.689Z"
                    transform="translate(-33.443 -121.689)" fill="#ffffff"></path>
            </g>
        </g>
        <g id="Group_433" data-name="Group 433" transform="translate(42.194 48.955)">
            <g id="Group_432" data-name="Group 432" transform="translate(0 0)">
                <path id="Path_2317" data-name="Path 2317"
                    d="M353.723,121.689a8.116,8.116,0,1,0,8.116,8.116A8.125,8.125,0,0,0,353.723,121.689Z"
                    transform="translate(-345.607 -121.689)" fill="#ffffff"></path>
            </g>
        </g>
    </g>
</svg>