<svg xmlns="http://www.w3.org/2000/svg" width="57.312" height="57.312" viewBox="0 0 57.312 57.312">
    <g id="_x39__x5F_advertise_building" transform="translate(0 -1)">
        <g id="XMLID_133_" transform="translate(0 1)">
            <path id="XMLID_134_" d="M187,60h15.366v3.028H187Z" transform="translate(-166.027 -53.383)" fill="#ffffff">
            </path>
            <path id="XMLID_168_" d="M136,1h26.806V5.823H136Z" transform="translate(-120.747 -1)" fill="#ffffff"></path>
            <path id="XMLID_171_"
                d="M136,148.872h5.384V133.507a.922.922,0,0,1,.925-.9h14.3a.922.922,0,0,1,.925.9v15.366h5.271V103H136Zm18.821-40.04H158.4a.9.9,0,0,1,0,1.795h-3.575a.9.9,0,1,1,0-1.795Zm0,5.72H158.4a.9.9,0,0,1,0,1.795h-3.575a.9.9,0,1,1,0-1.795Zm0,5.72H158.4a.9.9,0,0,1,0,1.795h-3.575a.9.9,0,1,1,0-1.795Zm0,5.72H158.4a.9.9,0,0,1,0,1.795h-3.575a.9.9,0,1,1,0-1.795Zm-7.15-17.16h3.575a.9.9,0,0,1,0,1.795h-3.575a.9.9,0,1,1,0-1.795Zm0,5.72h3.575a.9.9,0,0,1,0,1.795h-3.575a.9.9,0,1,1,0-1.795Zm0,5.72h3.575a.9.9,0,0,1,0,1.795h-3.575a.9.9,0,1,1,0-1.795Zm0,5.72h3.575a.9.9,0,0,1,0,1.795h-3.575a.9.9,0,1,1,0-1.795Zm-7.15-17.16H144.1a.9.9,0,0,1,0,1.795h-3.575a.9.9,0,1,1,0-1.795Zm0,5.72H144.1a.9.9,0,0,1,0,1.795h-3.575a.9.9,0,1,1,0-1.795Zm0,5.72H144.1a.9.9,0,0,1,0,1.795h-3.575a.9.9,0,1,1,0-1.795Zm0,5.72H144.1a.9.9,0,0,1,0,1.795h-3.575a.9.9,0,1,1,0-1.795Z"
                transform="translate(-120.747 -91.56)" fill="#ffffff"></path>
            <path id="XMLID_722_"
                d="M0,211.948H13.459v-37.9L0,179.091Zm4.879-27.7H8.692a.9.9,0,1,1,0,1.794H4.879a.9.9,0,1,1,0-1.794Zm0,6.729H8.692a.9.9,0,0,1,0,1.795H4.879a.9.9,0,0,1,0-1.795Zm0,6.617H8.692a.9.9,0,0,1,0,1.795H4.879a.9.9,0,0,1,0-1.795Zm0,6.729H8.692a.9.9,0,0,1,0,1.795H4.879a.9.9,0,0,1,0-1.795Z"
                transform="translate(0 -154.636)" fill="#ffffff"></path>
            <path id="XMLID_1838_"
                d="M391,174.044v37.9h13.459V179.091Zm8.692,32.072h-3.813a.9.9,0,0,1,0-1.795h3.813a.9.9,0,0,1,0,1.795Zm0-6.729h-3.813a.9.9,0,0,1,0-1.795h3.813a.9.9,0,0,1,0,1.795Zm0-6.617h-3.813a.9.9,0,0,1,0-1.795h3.813a.9.9,0,0,1,0,1.795Zm0-6.729h-3.813a.9.9,0,0,1,0-1.794h3.813a.9.9,0,0,1,0,1.794Z"
                transform="translate(-347.147 -154.636)" fill="#ffffff"></path>
            <path id="XMLID_1842_" d="M200,383h5.384v14.468H200Z" transform="translate(-177.569 -340.156)"
                fill="#ffffff"></path>
            <path id="XMLID_1843_" d="M264,383h5.384v14.468H264Z" transform="translate(-234.391 -340.156)"
                fill="#ffffff"></path>
        </g>
    </g>
</svg>