<svg xmlns="http://www.w3.org/2000/svg" width="48.879" height="56.832" viewBox="0 0 48.879 56.832">
    <path id="sme_17320649"
        d="M64.536,19.8l2.969,7.684H61.078V19.8Zm13.029,7.684h6.444L78.917,19.8H73.1ZM61.078,30.964c0,.023,0,.046,0,.072h0a3.4,3.4,0,1,0,6.8,0V29.11h-6.8Zm14.617-3.474L71.232,19.8H66.265l2.969,7.684Zm-2.8,6.943a3.406,3.406,0,0,0,3.4-3.4V29.11h-6.8v1.926A3.406,3.406,0,0,0,72.89,34.432ZM54.266,19.8H49.3l-4.462,7.684H51.3ZM44.2,48.79H59.834V42.424H44.2Zm0,3.3H59.834V50.411H44.2ZM41.624,33.435a3.389,3.389,0,0,0,1-2.4V29.11h-6.8v1.926a3.389,3.389,0,0,0,1,2.4,3.43,3.43,0,0,0,1.5.876l.033.01a3.427,3.427,0,0,0,.866.111,3.381,3.381,0,0,0,2.4-1Zm25.862,8.989h9.039V56.832H67.486ZM73.543,50.6a.81.81,0,1,0,1.621,0V48.663a.81.81,0,0,0-1.621,0ZM77.91,29.11v1.926a3.4,3.4,0,0,0,4.262,3.284l.036-.01a3.429,3.429,0,0,0,1.5-.876,3.386,3.386,0,0,0,1-2.4V29.11Zm3.4,6.943q.143,0,.286-.01V56.507a.331.331,0,0,1-.328.325H78.146V41.614a.812.812,0,0,0-.81-.81H66.678a.81.81,0,0,0-.81.81V56.832h-26.6a.325.325,0,0,1-.23-.1.315.315,0,0,1-.1-.23V36.043q.143.01.285.01a5,5,0,0,0,3.543-1.473,5.137,5.137,0,0,0,.667-.818,4.94,4.94,0,0,0,.663.817,5,5,0,0,0,7.091,0,5.3,5.3,0,0,0,.663-.817,4.941,4.941,0,0,0,.663.817,5,5,0,0,0,7.09,0,5.3,5.3,0,0,0,.663-.817,4.94,4.94,0,0,0,.663.817,5,5,0,0,0,7.09,0,5.3,5.3,0,0,0,.663-.817,5.119,5.119,0,0,0,.663.817,5,5,0,0,0,7.091,0,5.122,5.122,0,0,0,.663-.817,5.116,5.116,0,0,0,.663.817A5.008,5.008,0,0,0,81.309,36.053ZM61.455,41.614a.81.81,0,0,0-.81-.81H43.386a.812.812,0,0,0-.81.81V52.9a.812.812,0,0,0,.81.81H60.644a.81.81,0,0,0,.81-.81V41.614Zm-7.8-8.18a3.4,3.4,0,0,0,5.8-2.4h0a.565.565,0,0,1,0-.072V29.11H52.662v1.874c0,.016,0,.033,0,.053h0a3.386,3.386,0,0,0,1,2.4Zm5.8-13.63H56l-2.969,7.685h6.428Zm-12.025,0H41.617l-5.092,7.685h6.444ZM44.246,31.01c0,.007,0,.016,0,.026h0a3.4,3.4,0,1,0,6.8,0V29.11h-6.8Zm-1.7-18.544V.863A.866.866,0,0,1,43.409,0H77.122a.864.864,0,0,1,.863.863v11.6a.866.866,0,0,1-.863.863H62.095l-.387.666-1.44,2.5-1.444-2.5-.387-.666H43.409a.868.868,0,0,1-.863-.863Zm23.581-2.1a.812.812,0,0,0,.81.81h4.951a.81.81,0,1,0,0-1.621h-4.14V7.474h4.14a.81.81,0,1,0,0-1.621h-4.14V3.77h4.14a.81.81,0,1,0,0-1.621H66.938a.812.812,0,0,0-.81.81Zm-9.144,0a.807.807,0,1,0,1.614,0V5.8l.981,1.588a.812.812,0,0,0,1.112.262.8.8,0,0,0,.269-.276L61.937,5.8l0,4.571a.807.807,0,1,0,1.614,0l0-7.393a.807.807,0,0,0-1.493-.44L60.267,5.427,58.476,2.536a.806.806,0,0,0-1.493.423Zm-4.2-1.854a1.053,1.053,0,0,1-1.043,1.043H50.5a1.053,1.053,0,0,1-1.043-1.043.81.81,0,1,0-1.621,0A2.672,2.672,0,0,0,50.5,11.179h1.247a2.663,2.663,0,1,0,0-5.325H50.5a1.042,1.042,0,0,1,0-2.083h1.247a1.048,1.048,0,0,1,1.043,1.04.81.81,0,0,0,1.621,0,2.672,2.672,0,0,0-2.664-2.661H50.5a2.663,2.663,0,0,0,0,5.325h1.247a1.045,1.045,0,0,1,1.043,1.04Z"
        transform="translate(-35.826 0)" fill="#ffffff" fill-rule="evenodd"></path>
</svg>